#!OML:ASF F:\twosubjects\two\Thursday\Session 1\justin.ASF
:FULLY-SPECIFIED
:DEGREES
441
root -6.19862 17.9126 5.37963 -527.909 -33.1931 535.108
lowerback 1.47019 -1.96383 -7.99246
upperback 1.07287 -2.72577 1.87802
thorax 0.755205 -1.44289 6.45823
lowerneck -18.1079 -8.57859 -13.9837
upperneck 24.1999 -12.4736 12.702
head 12.8056 -5.63076 4.99261
rclavicle 1.02175e-013 -4.01545e-014
rhumerus -26.4525 -12.7815 -81.4508
rradius 27.6266
rwrist -2.7746
rhand -16.1318 10.884
rfingers 7.12502
rthumb 10.073 -18.8549
lclavicle 1.02175e-013 -4.01545e-014
lhumerus -16.2001 -13.2313 85.0036
lradius 34.6586
lwrist -5.66066
lhand -6.23644 34.6762
lfingers 7.12502
lthumb 19.6051 63.7077
rfemur -35.6406 -9.20924 15.47
rtibia 24.505
rfoot -2.84968 -18.7969
rtoes 1.09856
lfemur 9.06338 7.23694 -22.2095
ltibia 3.18055e-014
lfoot -8.16985 9.36043
ltoes -20.1624
442
root -6.22025 17.9179 5.29986 -528.19 -32.8694 535.326
lowerback 1.78542 -1.87999 -7.65816
upperback 1.12047 -2.63589 1.86668
thorax 0.595229 -1.39099 6.26821
lowerneck -17.9913 -8.54735 -14.0162
upperneck 24.0702 -12.4183 12.7313
head 12.7256 -5.60958 5.02035
rclavicle -1.2921e-014 5.1684e-015
rhumerus -26.4377 -12.8878 -81.4756
rradius 27.8482
rwrist -2.57317
rhand -16.2272 11.2782
rfingers 7.12502
rthumb 9.98101 -18.4651
lclavicle -1.2921e-014 5.1684e-015
lhumerus -16.2158 -12.6599 84.9727
lradius 34.5765
lwrist -6.14757
lhand -6.29573 34.9019
lfingers 7.12502
lthumb 19.5481 63.9392
rfemur -35.4254 -8.65969 15.5564
rtibia 24.5783
rfoot -0.84209 -19.0822
rtoes 4.11719
lfemur 9.60821 7.16033 -21.83
ltibia -6.36111e-015
lfoot -8.42507 8.64121
ltoes -17.1431
443
root -6.24537 17.9343 5.2113 -528.182 -32.6268 535.29
lowerback 1.86035 -1.94859 -7.6201
upperback 1.16608 -2.73332 1.91368
thorax 0.617146 -1.44302 6.2977
lowerneck -18.3534 -8.49597 -13.9738
upperneck 24.3709 -12.2644 12.47
head 12.8695 -5.55091 4.93929
rclavicle -6.92765e-014 -8.74653e-015
rhumerus -26.1207 -12.2571 -81.5861
rradius 27.8174
rwrist -2.7936
rhand -16.1389 11.1014
rfingers 7.12502
rthumb 10.0662 -18.6378
lclavicle -6.92765e-014 -8.74653e-015
lhumerus -16.2149 -11.6154 85.0006
lradius 34.4223
lwrist -6.60958
lhand -6.98886 35.5592
lfingers 7.12502
lthumb 18.8815 64.6628
rfemur -35.3333 -8.38003 15.4875
rtibia 24.696
rfoot 0.822186 -19.0371
rtoes 5.65278
lfemur 10.0523 6.95242 -21.6608
ltibia -2.8625e-014
lfoot -8.7786 8.1417
ltoes -12.243
444
root -6.27273 17.9457 5.11316 -528.112 -32.513 535.196
lowerback 1.86552 -2.04714 -7.60209
upperback 1.21128 -2.86576 1.99955
thorax 0.686852 -1.51504 6.37652
lowerneck -18.5821 -8.5025 -13.8588
upperneck 24.4981 -12.1311 12.005
head 12.8989 -5.51836 4.75959
rclavicle 1.35174e-014 -1.19271e-015
rhumerus -25.8137 -11.3682 -81.6873
rradius 27.8259
rwrist -3.27094
rhand -16.275 10.7497
rfingers 7.12502
rthumb 9.93489 -18.9959
lclavicle 1.35174e-014 -1.19271e-015
lhumerus -16.3062 -10.4513 85.1095
lradius 34.2888
lwrist -7.01166
lhand -7.30413 36.0633
lfingers 7.12502
lthumb 18.5783 65.1962
rfemur -35.194 -8.30706 15.3956
rtibia 24.7768
rfoot 1.29206 -18.7756
rtoes 8.02885
lfemur 10.369 6.61992 -21.6612
ltibia -4.77083e-014
lfoot -8.62659 8.38999
ltoes -13.1727
445
root -6.29461 17.9389 5.01119 -528.294 -32.4318 535.549
lowerback 1.8993 -2.09566 -7.28461
upperback 1.13881 -2.93101 2.21241
thorax 0.598127 -1.54094 6.42337
lowerneck -18.238 -8.4767 -14.2547
upperneck 24.3976 -12.0327 12.0805
head 12.8071 -5.51804 4.88136
rclavicle 2.0773e-014 4.77083e-015
rhumerus -25.8828 -10.8978 -81.5662
rradius 27.8746
rwrist -3.4658
rhand -16.4353 10.9501
rfingers 7.12502
rthumb 9.78021 -18.8028
lclavicle 2.0773e-014 4.77083e-015
lhumerus -16.7775 -9.29469 85.3773
lradius 34.2819
lwrist -7.2916
lhand -6.74002 35.7601
lfingers 7.12502
lthumb 19.1208 64.8402
rfemur -35.0482 -7.85935 15.5999
rtibia 24.9408
rfoot 1.19864 -18.4028
rtoes 9.26813
lfemur 10.5106 6.34604 -21.4032
ltibia 4.13472e-014
lfoot -7.35771 9.49317
ltoes -22.5976
446
root -6.3109 17.9438 4.91066 -528.405 -32.2834 536.081
lowerback 1.71141 -2.18645 -6.90532
upperback 1.1111 -3.03798 2.4995
thorax 0.687843 -1.59765 6.50181
lowerneck -18.1924 -8.44241 -14.6761
upperneck 24.345 -11.8906 12.2293
head 12.796 -5.47736 5.03939
rclavicle 7.95139e-014 -1.35174e-014
rhumerus -25.7006 -10.6972 -81.4515
rradius 27.8644
rwrist -3.23908
rhand -16.5148 11.2304
rfingers 7.12502
rthumb 9.70349 -18.526
lclavicle 7.95139e-014 -1.35174e-014
lhumerus -17.186 -8.22799 85.6774
lradius 34.3564
lwrist -6.98913
lhand -6.68161 35.3599
lfingers 7.12502
lthumb 19.177 64.4344
rfemur -35.1191 -7.31009 16.0021
rtibia 25.2008
rfoot 1.1692 -17.9528
rtoes 9.22652
lfemur 10.8941 6.11953 -20.5952
ltibia 3.81667e-014
lfoot -7.99383 9.0724
ltoes -16.2363
447
root -6.33282 17.9444 4.80621 -528.404 -31.7568 536.273
lowerback 1.49026 -2.17133 -6.7513
upperback 1.42786 -3.00742 2.658
thorax 1.13618 -1.61408 6.56333
lowerneck -19.5585 -8.61816 -14.3944
upperneck 24.6569 -11.7853 11.5471
head 13.1111 -5.40609 4.71781
rclavicle 3.75703e-014 3.26007e-014
rhumerus -24.752 -10.4585 -81.5216
rradius 27.7587
rwrist -2.85904
rhand -16.2566 11.6027
rfingers 7.12502
rthumb 9.95258 -18.142
lclavicle 3.75703e-014 3.26007e-014
lhumerus -16.8728 -7.17499 85.8739
lradius 34.1715
lwrist -6.22438
lhand -8.3327 34.6201
lfingers 7.12502
lthumb 17.5887 63.8446
rfemur -35.1078 -6.85194 16.1641
rtibia 25.3762
rfoot 1.01511 -17.584
rtoes 9.78968
lfemur 11.2101 6.22757 -20.3522
ltibia 6.36111e-015
lfoot -7.54617 9.28016
ltoes -19.0238
448
root -6.36325 17.9441 4.69027 -528.395 -30.7406 536.004
lowerback 1.34096 -1.7394 -7.03073
upperback 1.1931 -2.41292 2.34075
thorax 0.876833 -1.29313 6.39342
lowerneck -18.1634 -8.51241 -13.5179
upperneck 24.349 -11.9408 10.9354
head 12.6132 -5.53408 4.32678
rclavicle 4.55217e-014 -1.43125e-014
rhumerus -25.6422 -11.1635 -81.4089
rradius 27.769
rwrist -2.6873
rhand -15.6483 12.2114
rfingers 7.12502
rthumb 10.5394 -17.5044
lclavicle 4.55217e-014 -1.43125e-014
lhumerus -17.9501 -7.53647 86.0356
lradius 34.1747
lwrist -5.29097
lhand -9.96923 33.6831
lfingers 7.12502
lthumb 16.0133 63.0413
rfemur -34.8314 -6.27865 15.8978
rtibia 25.5397
rfoot 0.644453 -17.2099
rtoes 10.2395
lfemur 11.7846 6.7467 -20.6787
ltibia -5.08889e-014
lfoot -6.83115 9.73002
ltoes -23.9742
449
root -6.37072 17.9646 4.60759 -527.9 -31.392 535.936
lowerback 1.24201 -1.98052 -6.90834
upperback 0.946328 -2.72755 2.39314
thorax 0.724358 -1.4344 6.37771
lowerneck -17.5837 -8.42597 -13.2575
upperneck 24.0544 -11.9526 10.9375
head 12.362 -5.54263 4.29279
rclavicle -2.3059e-014 2.38542e-015
rhumerus -25.7747 -11.5481 -81.3324
rradius 27.6332
rwrist -2.46824
rhand -15.3664 12.0759
rfingers 7.12502
rthumb 10.8113 -17.6258
lclavicle -2.3059e-014 2.38542e-015
lhumerus -18.4583 -7.00118 86.1903
lradius 34.3544
lwrist -5.17865
lhand -9.85855 34.3757
lfingers 7.12502
lthumb 16.1199 63.7253
rfemur -35.0967 -6.61541 15.9189
rtibia 25.884
rfoot 0.0967978 -17.6037
rtoes 10.4626
lfemur 11.4605 5.67213 -20.6004
ltibia -9.54166e-015
lfoot -6.1492 9.84255
ltoes -24.8821
450
root -6.39521 17.9784 4.49797 -528.113 -31.1402 536.45
lowerback 0.931175 -1.92358 -6.67535
upperback 0.837402 -2.63493 2.67936
thorax 0.773856 -1.3875 6.53799
lowerneck -16.5313 -8.28076 -13.2919
upperneck 23.6756 -11.855 10.9347
head 11.9898 -5.55219 4.33861
rclavicle 7.81224e-014 4.53229e-014
rhumerus -26.0284 -11.5286 -81.0575
rradius 27.6458
rwrist -2.41191
rhand -15.4142 12.365
rfingers 7.12502
rthumb 10.7653 -17.3391
lclavicle 7.81224e-014 4.53229e-014
lhumerus -19.2978 -6.29567 86.6352
lradius 34.5469
lwrist -5.01726
lhand -9.32063 36.196
lfingers 7.12502
lthumb 16.6378 65.5029
rfemur -35.0088 -6.86357 16.7256
rtibia 26.2226
rfoot -0.469223 -16.92
rtoes 9.72438
lfemur 11.8404 5.56099 -19.9471
ltibia 2.22639e-014
lfoot -5.90476 9.96692
ltoes -21.9505
451
root -6.41487 17.9687 4.40403 -528.086 -30.7695 536.61
lowerback 0.967147 -2.16616 -6.32916
upperback 1.43057 -2.97701 3.0248
thorax 1.4252 -1.61127 6.68737
lowerneck -19.564 -8.54288 -13.8877
upperneck 24.4747 -11.5186 10.6911
head 12.8933 -5.33083 4.34334
rclavicle 5.28767e-014 -1.59028e-015
rhumerus -24.0021 -10.4758 -81.2888
rradius 27.2242
rwrist -2.48307
rhand -15.5003 13.3684
rfingers 7.12502
rthumb 10.6822 -16.34
lclavicle 5.28767e-014 -1.59028e-015
lhumerus -18.4744 -4.49747 86.842
lradius 34.4437
lwrist -4.28739
lhand -9.71687 37.4848
lfingers 7.12502
lthumb 16.2563 66.8233
rfemur -35.0153 -6.94429 17.0835
rtibia 26.3789
rfoot -0.979415 -16.258
rtoes 9.05913
lfemur 11.8739 5.53816 -19.9196
ltibia 0
lfoot -3.82825 10.9418
ltoes -27.6528
452
root -6.43543 17.9833 4.31331 -527.876 -30.2042 536.564
lowerback 0.917684 -1.97466 -6.37738
upperback 1.13252 -2.71251 2.98841
thorax 1.10098 -1.45362 6.68601
lowerneck -18.7797 -8.49525 -13.8423
upperneck 24.3394 -11.6071 10.7057
head 12.6905 -5.40448 4.34018
rclavicle 5.66536e-014 -2.06736e-014
rhumerus -24.3657 -10.8472 -81.0364
rradius 26.9534
rwrist -2.23286
rhand -15.4132 12.9911
rfingers 7.12502
rthumb 10.7662 -16.713
lclavicle 5.66536e-014 -2.06736e-014
lhumerus -19.3977 -4.20027 87.1369
lradius 34.4475
lwrist -4.1484
lhand -9.52937 38.3286
lfingers 7.12502
lthumb 16.4368 67.6522
rfemur -35.0277 -6.90532 17.2139
rtibia 26.3689
rfoot -1.25042 -15.6227
rtoes 9.05623
lfemur 11.9776 5.65744 -20.0281
ltibia 3.18055e-015
lfoot -2.96018 11.0452
ltoes -28.5989
453
root -6.4539 18.022 4.21242 -527.801 -29.781 536.873
lowerback 0.807252 -1.82066 -6.10585
upperback 0.915443 -2.50127 3.09453
thorax 0.895782 -1.33111 6.64622
lowerneck -18.2909 -8.51834 -13.9595
upperneck 24.2902 -11.7235 10.7817
head 12.6031 -5.48418 4.37749
rclavicle 1.61016e-014 -7.95139e-015
rhumerus -24.4776 -11.3532 -80.728
rradius 26.6638
rwrist -1.74959
rhand -15.1661 11.9537
rfingers 7.12502
rthumb 11.0045 -17.7378
lclavicle 1.61016e-014 -7.95139e-015
lhumerus -20.237 -4.14661 87.5222
lradius 34.5355
lwrist -3.6386
lhand -9.04347 38.7396
lfingers 7.12502
lthumb 16.9046 68.0239
rfemur -34.8957 -6.70716 17.69
rtibia 26.2134
rfoot -1.26564 -15.3965
rtoes 8.89211
lfemur 10.7465 5.72727 -19.6841
ltibia 2.57
lfoot -3.69673 10.7717
ltoes -28.3706
454
root -6.47061 18.0596 4.10777 -527.894 -29.504 537.3
lowerback 0.82007 -1.73749 -5.61291
upperback 0.800505 -2.39208 3.1668
thorax 0.733619 -1.26478 6.44404
lowerneck -18.027 -8.57894 -13.751
upperneck 24.2311 -11.8852 10.6517
head 12.5253 -5.5653 4.26649
rclavicle 3.57812e-015 -4.77083e-015
rhumerus -24.628 -11.9757 -80.582
rradius 26.7554
rwrist -1.32365
rhand -14.9111 11.484
rfingers 7.12502
rthumb 11.2505 -18.1943
lclavicle 3.57812e-015 -4.77083e-015
lhumerus -21.0127 -4.62629 87.8718
lradius 34.4859
lwrist -2.21341
lhand -9.69036 38.3873
lfingers 7.12502
lthumb 16.2818 67.7238
rfemur -34.549 -6.73127 18.3498
rtibia 25.9231
rfoot -1.24215 -14.9721
rtoes 7.82664
lfemur 9.10999 5.69401 -19.1693
ltibia 6.14642
lfoot -4.83753 10.7161
ltoes -27.3165
455
root -6.48699 18.0815 4.00401 -528.02 -29.1964 537.601
lowerback 0.833432 -1.69752 -5.20703
upperback 0.896879 -2.3415 3.18499
thorax 0.801493 -1.24335 6.22971
lowerneck -18.3989 -8.6303 -13.227
upperneck 24.2711 -11.9453 10.2821
head 12.5586 -5.56746 4.01574
rclavicle 2.5842e-014 7.15625e-015
rhumerus -24.3919 -12.3777 -80.6987
rradius 26.8025
rwrist -1.18562
rhand -14.742 11.3844
rfingers 7.12502
rthumb 11.4136 -18.2849
lclavicle 2.5842e-014 7.15625e-015
lhumerus -21.3376 -4.71838 88.0422
lradius 34.3481
lwrist -1.7069
lhand -9.7599 38.809
lfingers 7.12502
lthumb 16.2148 68.1509
rfemur -34.2029 -7.14745 18.9972
rtibia 25.7304
rfoot -1.44342 -14.1215
rtoes 7.21757
lfemur 8.38404 5.64817 -18.7848
ltibia 8.12624
lfoot -5.31088 10.8633
ltoes -25.2929
